<?xml version="1.0" encoding="UTF-8"?>
<svg id="Camada_4" data-name="Camada 4" xmlns="http://www.w3.org/2000/svg" xmlns:xlink="http://www.w3.org/1999/xlink" viewBox="0 0 850.39 566.93">
  <defs>
    <style>
      .cls-1 {
        fill: #284797;
      }

      .cls-2 {
        fill: #fff;
      }

      .cls-3 {
        fill: #633f91;
      }

      .cls-4 {
        fill: #014898;
      }

      .cls-5 {
        fill: #00a6e6;
      }

      .cls-6 {
        fill: #532e86;
      }

      .cls-7 {
        fill: none;
      }

      .cls-8 {
        fill: #1e0b39;
      }

      .cls-9 {
        fill: #241a43;
      }

      .cls-10 {
        clip-path: url(#clippath-1);
      }

      .cls-11 {
        clip-path: url(#clippath-5);
      }

      .cls-12 {
        clip-path: url(#clippath-3);
      }

      .cls-13 {
        fill: #133578;
      }

      .cls-14 {
        clip-path: url(#clippath-2);
      }

      .cls-15 {
        fill: #0065b0;
      }

      .cls-16 {
        fill: #3a2666;
      }

      .cls-17 {
        clip-path: url(#clippath);
      }
    </style>
    <clipPath id="clippath">
      <path class="cls-9" d="M449.62,224.04c-3.85,25.73-28.09,42.88-43.29,64.91-1.68,2.79-2.22,5.97-2.39,9.01v82.84c0,35.19-26.35,63.73-58.84,63.73-16.24,0-30.95-7.14-41.6-18.66-10.64-11.54-17.23-27.47-17.23-45.07v-194.67c0-8.48.79-53.64,34.47-90.13,21.29-23.06,50.71-37.34,83.2-37.34h0v161.51c.79,12.11,10.82,21.89,22.71,22.1,10.89.19,20.47-7.7,22.97-18.25Z"/>
    </clipPath>
    <clipPath id="clippath-1">
      <path class="cls-7" d="M568.36,186.12v194.67c0,8.48-.79,53.64-34.47,90.13-21.29,23.06-50.71,37.34-83.2,37.34v-209.36c-1.34-11.68-11.25-20.6-22.91-20.71-11.82-.12-22.47,9.1-23.83,20.94v-3.88c.17-3.04,1.19-6.42,2.86-9.22,15.19-22.04,39.44-39.19,43.29-64.91.3-1.27.5-2.57.58-3.9v-31.09c0-35.19,26.35-63.73,58.84-63.73s58.84,28.54,58.84,63.73Z"/>
    </clipPath>
    <clipPath id="clippath-2">
      <path class="cls-7" d="M571.2,337.33c-.17.88-.92,1.88-1.38,2.63-.28.46-.57.91-.87,1.35-.16.23-.57.84-.58,1.1.05-1.55-.13-3.1-.08-4.65.03-.93-.24-.79-1.08-.9-.58-.07-1.16-.15-1.74-.22-2.16-.29-4.38-.54-6.49-1.11-15.72-4.26-26.66-15.66-27.47-28.61-.49-7.86,3.28-15.51,9.05-22.16,10.74-12.38,30.62-15.03,30.62-15.03v64.6c0,.77,0,1.55,0,2.32,0,.2.05.48,0,.68Z"/>
    </clipPath>
    <clipPath id="clippath-3">
      <path class="cls-3" d="M571.2,337.33c-.17.88-.92,1.88-1.38,2.63-.28.46-.57.91-.87,1.35-.16.23-.57.84-.58,1.1.05-1.55-.13-3.1-.08-4.65.03-.93-.24-.79-1.08-.9-.58-.07-1.16-.15-1.74-.22-2.16-.29-4.38-.54-6.49-1.11-15.72-4.26-26.66-15.66-27.47-28.61-.49-7.86,3.28-15.51,9.05-22.16,10.74-12.38,30.62-15.03,30.62-15.03v64.6c0,.77,0,1.55,0,2.32,0,.2.05.48,0,.68Z"/>
    </clipPath>
    <clipPath id="clippath-5">
      <path class="cls-5" d="M282.08,297.59c.22.47.69.75,1.13,1.15,1.09,1.01,2.07,2.07,3.06,3.19,0-1.24.07-2.48.07-3.72,0-.68-.18-.94.47-1.11.55-.14,1.16-.14,1.72-.22,1.89-.25,3.82-.47,5.66-.96,15.75-4.18,26.78-15.56,27.68-28.57.55-7.9-3.16-15.62-8.88-22.35-10.64-12.52-31.02-15.32-31.02-15.32v66.05c0,.36,0,.71,0,1.07,0,.12-.01.26,0,.38.02.15.05.29.11.41Z"/>
    </clipPath>
  </defs>
  <g id="Camada_1" data-name="Camada 1">
    <g>
      <path class="cls-13" d="M568.36,186.12v194.67c0,8.48-.79,53.64-34.47,90.13-21.29,23.06-50.71,37.34-83.2,37.34v-209.36c-1.34-11.68-11.25-20.6-22.91-20.71-11.82-.12-22.47,9.1-23.83,20.94l.47-4.09c.17-3.04.72-6.22,2.4-9.01,15.19-22.04,39.44-39.19,43.29-64.91.3-1.27.5-2.57.58-3.9v-31.09c0-35.19,26.35-63.73,58.84-63.73s58.84,28.54,58.84,63.73Z"/>
      <g>
        <path class="cls-9" d="M449.62,224.04c-3.85,25.73-28.09,42.88-43.29,64.91-1.68,2.79-2.22,5.97-2.39,9.01v82.84c0,35.19-26.35,63.73-58.84,63.73-16.24,0-30.95-7.14-41.6-18.66-10.64-11.54-17.23-27.47-17.23-45.07v-194.67c0-8.48.79-53.64,34.47-90.13,21.29-23.06,50.71-37.34,83.2-37.34h0v161.51c.79,12.11,10.82,21.89,22.71,22.1,10.89.19,20.47-7.7,22.97-18.25Z"/>
        <g class="cls-17">
          <ellipse class="cls-16" cx="414.4" cy="250.23" rx="115.84" ry="171.82"/>
          <ellipse class="cls-6" cx="434.46" cy="253.63" rx="110.66" ry="151.92"/>
          <ellipse class="cls-3" cx="459.24" cy="255.23" rx="110.66" ry="128.96"/>
        </g>
      </g>
      <g class="cls-10">
        <ellipse class="cls-4" cx="452.39" cy="306.71" rx="100.5" ry="161.29"/>
        <ellipse class="cls-15" cx="431.05" cy="310.66" rx="100.48" ry="133.88"/>
        <ellipse class="cls-5" cx="405.9" cy="309.44" rx="94.57" ry="109.37"/>
      </g>
      <g>
        <g class="cls-14">
          <rect class="cls-2" x="567.53" y="336.9" width="4.53" height="5.31"/>
        </g>
        <g>
          <path class="cls-3" d="M571.2,337.33c-.17.88-.92,1.88-1.38,2.63-.28.46-.57.91-.87,1.35-.16.23-.57.84-.58,1.1.05-1.55-.13-3.1-.08-4.65.03-.93-.24-.79-1.08-.9-.58-.07-1.16-.15-1.74-.22-2.16-.29-4.38-.54-6.49-1.11-15.72-4.26-26.66-15.66-27.47-28.61-.49-7.86,3.28-15.51,9.05-22.16,10.74-12.38,30.62-15.03,30.62-15.03v64.6c0,.77,0,1.55,0,2.32,0,.2.05.48,0,.68Z"/>
          <g class="cls-12">
            <rect class="cls-8" x="567.53" y="336.9" width="4.53" height="5.31"/>
          </g>
        </g>
      </g>
      <g>
        <path class="cls-5" d="M282.08,297.59c.22.47.69.75,1.13,1.15,1.09,1.01,2.07,2.07,3.06,3.19,0-1.24.07-2.48.07-3.72,0-.68-.18-.94.47-1.11.55-.14,1.16-.14,1.72-.22,1.89-.25,3.82-.47,5.66-.96,15.75-4.18,26.78-15.56,27.68-28.57.55-7.9-3.16-15.62-8.88-22.35-10.64-12.52-31.02-15.32-31.02-15.32v66.05c0,.36,0,.71,0,1.07,0,.12-.01.26,0,.38.02.15.05.29.11.41Z"/>
        <g class="cls-11">
          <polygon class="cls-1" points="281.75 301.93 286.9 301.99 287.1 297.05 281.75 297.05 281.75 301.93"/>
        </g>
      </g>
    </g>
  </g>
</svg>